<?xml version="1.0" encoding="UTF-8" standalone="no"?>
<svg width="396px" height="396px" viewBox="0 0 396 396" version="1.1" xmlns="http://www.w3.org/2000/svg" xmlns:xlink="http://www.w3.org/1999/xlink" xmlns:sketch="http://www.bohemiancoding.com/sketch/ns">
    <!-- Generator: Sketch 3.3.1 (12002) - http://www.bohemiancoding.com/sketch -->
    <title>Imported Layers</title>
    <desc>Created with Sketch.</desc>
    <defs></defs>
    <g id="Page-1" stroke="none" stroke-width="1" fill="#fff" fill-rule="evenodd" sketch:type="MSPage">
        <g id="Artboard-1" sketch:type="MSArtboardGroup" transform="translate(-2.000000, -2.000000)" fill="#fff">
            <path d="M199.994521,1.99726027 C90.6739726,1.99726027 2.00547945,90.6493151 2.00547945,199.980822 C2.00547945,309.361644 90.6739726,398.00274 199.994521,398.00274 C309.342466,398.00274 397.994521,309.361644 397.994521,199.980822 C397.994521,90.6493151 309.342466,1.99726027 199.994521,1.99726027 L199.994521,1.99726027 Z M199.994521,58.5671233 C220.882192,58.5671233 237.775342,75.4876712 237.775342,96.3643836 C237.775342,117.230137 220.882192,134.167123 199.994521,134.167123 C179.145205,134.167123 162.20274,117.230137 162.20274,96.3643836 C162.20274,75.4876712 179.145205,58.5671233 199.994521,58.5671233 L199.994521,58.5671233 Z M200.082192,341.432877 L200.032877,341.339726 L199.994521,341.4 C121.868493,341.410959 58.5808219,278.09589 58.5808219,199.980822 C58.5808219,174.232877 65.4794521,150.090411 77.5287671,129.29589 C129.89589,129.29589 175.594521,157.794521 200.032877,200.090411 C224.460274,157.794521 270.115068,129.312329 322.454795,129.29589 C334.49863,150.090411 341.419178,174.232877 341.419178,199.980822 C341.419178,278.09589 278.153425,341.4 200.082192,341.432877 L200.082192,341.432877 Z" id="Imported-Layers" sketch:type="MSShapeGroup"></path>
        </g>
    </g>
</svg>
